<svg className="logo" width="92" height="31" viewBox="0 0 92 31" fill="none" xmlns="http://www.w3.org/2000/svg">
        <path d="M0.43821 14V0.909091H8.6456V2.60938H2.41335V6.59801H8.21733V8.2919H2.41335V12.2997H8.7223V14H0.43821ZM22.1568 5.16619H20.1625C20.0858 4.74006 19.943 4.36506 19.7342 4.04119C19.5254 3.71733 19.2697 3.44247 18.9672 3.21662C18.6646 2.99077 18.3258 2.82031 17.9508 2.70526C17.5801 2.5902 17.1859 2.53267 16.7683 2.53267C16.014 2.53267 15.3386 2.7223 14.742 3.10156C14.1497 3.48082 13.6809 4.03693 13.3358 4.76989C12.9949 5.50284 12.8244 6.39773 12.8244 7.45455C12.8244 8.51989 12.9949 9.41903 13.3358 10.152C13.6809 10.8849 14.1518 11.4389 14.7484 11.8139C15.345 12.1889 16.0162 12.3764 16.7619 12.3764C17.1752 12.3764 17.5673 12.321 17.938 12.2102C18.313 12.0952 18.6518 11.9268 18.9544 11.7053C19.2569 11.4837 19.5126 11.2131 19.7214 10.8935C19.9345 10.5696 20.0815 10.1989 20.1625 9.78125L22.1568 9.78764C22.0502 10.4311 21.8436 11.0234 21.5368 11.5646C21.2342 12.1016 20.8443 12.5661 20.367 12.9581C19.894 13.3459 19.3528 13.6463 18.7434 13.8594C18.1341 14.0724 17.4693 14.179 16.7491 14.179C15.6156 14.179 14.6056 13.9105 13.7193 13.3736C12.8329 12.8324 12.1341 12.0589 11.6227 11.0533C11.1156 10.0476 10.862 8.84801 10.862 7.45455C10.862 6.05682 11.1177 4.85724 11.6291 3.85582C12.1404 2.85014 12.8393 2.07883 13.7257 1.5419C14.612 1.00071 15.6199 0.730113 16.7491 0.730113C17.4437 0.730113 18.0914 0.830255 18.6923 1.03054C19.2974 1.22656 19.8407 1.51633 20.3223 1.89986C20.8038 2.27912 21.2022 2.74361 21.5176 3.29332C21.8329 3.83878 22.046 4.46307 22.1568 5.16619ZM24.5202 14V0.909091H26.4954V12.2997H32.4272V14H24.5202ZM36.6555 0.909091V14H34.6804V0.909091H36.6555ZM39.532 14V0.909091H44.1982C45.2166 0.909091 46.0604 1.09446 46.7294 1.4652C47.3984 1.83594 47.8991 2.34304 48.2315 2.98651C48.5639 3.62571 48.7301 4.34588 48.7301 5.14702C48.7301 5.95241 48.5618 6.67685 48.2251 7.32031C47.8928 7.95952 47.3899 8.46662 46.7166 8.84162C46.0476 9.21236 45.206 9.39773 44.1918 9.39773H40.983V7.72301H44.0128C44.6563 7.72301 45.1783 7.61222 45.5788 7.39062C45.9794 7.16477 46.2734 6.85795 46.4609 6.47017C46.6484 6.08239 46.7422 5.64133 46.7422 5.14702C46.7422 4.6527 46.6484 4.21378 46.4609 3.83026C46.2734 3.44673 45.9773 3.14631 45.5724 2.92898C45.1719 2.71165 44.6435 2.60298 43.9872 2.60298H41.5071V14H39.532ZM58.1855 4.34801C58.1174 3.7429 57.8361 3.27415 57.3418 2.94176C56.8475 2.60511 56.2253 2.43679 55.4753 2.43679C54.9384 2.43679 54.4739 2.52202 54.0819 2.69247C53.6898 2.85866 53.3851 3.08878 53.1678 3.38281C52.9547 3.67258 52.8482 4.00284 52.8482 4.37358C52.8482 4.68466 52.9206 4.95312 53.0655 5.17898C53.2147 5.40483 53.4086 5.59446 53.6472 5.74787C53.8901 5.89702 54.15 6.02273 54.427 6.125C54.704 6.22301 54.9703 6.30398 55.226 6.3679L56.5044 6.70028C56.9221 6.80256 57.3503 6.94105 57.7892 7.11577C58.2282 7.29048 58.6351 7.5206 59.0101 7.80611C59.3851 8.09162 59.6877 8.44531 59.9178 8.86719C60.1522 9.28906 60.2694 9.79403 60.2694 10.3821C60.2694 11.1236 60.0776 11.782 59.6941 12.3572C59.3148 12.9325 58.763 13.3864 58.0385 13.7188C57.3184 14.0511 56.4469 14.2173 55.4242 14.2173C54.4441 14.2173 53.5961 14.0618 52.8801 13.7507C52.1642 13.4396 51.6039 12.9986 51.199 12.4276C50.7942 11.8523 50.5705 11.1705 50.5279 10.3821H52.5094C52.5478 10.8551 52.7012 11.2493 52.9696 11.5646C53.2424 11.8757 53.5897 12.108 54.0115 12.2614C54.4377 12.4105 54.9043 12.4851 55.4114 12.4851C55.9696 12.4851 56.4661 12.3977 56.9007 12.223C57.3397 12.044 57.6848 11.7969 57.9363 11.4815C58.1877 11.1619 58.3134 10.7891 58.3134 10.3629C58.3134 9.97514 58.2026 9.65767 57.981 9.41051C57.7637 9.16335 57.4675 8.95881 57.0925 8.79688C56.7218 8.63494 56.302 8.49219 55.8333 8.36861L54.2864 7.94673C53.2381 7.66122 52.4071 7.24148 51.7935 6.6875C51.1841 6.13352 50.8794 5.40057 50.8794 4.48864C50.8794 3.73437 51.084 3.07599 51.4931 2.51349C51.9022 1.95099 52.4561 1.5142 53.155 1.20312C53.8539 0.887784 54.6422 0.730113 55.5201 0.730113C56.4064 0.730113 57.1884 0.885653 57.8659 1.19673C58.5478 1.50781 59.0847 1.93608 59.4767 2.48153C59.8688 3.02273 60.0733 3.64489 60.0904 4.34801H58.1855ZM62.6296 14V0.909091H70.837V2.60938H64.6048V6.59801H70.4087V8.2919H64.6048V12.2997H70.9137V14H62.6296ZM77.7132 14H73.4753V0.909091H77.8475C79.1301 0.909091 80.2317 1.17116 81.1522 1.69531C82.0726 2.2152 82.7779 2.96307 83.2679 3.93892C83.7623 4.91051 84.0094 6.07599 84.0094 7.43537C84.0094 8.79901 83.7601 9.97088 83.2615 10.951C82.7672 11.9311 82.0513 12.6854 81.1138 13.2138C80.1763 13.7379 79.0428 14 77.7132 14ZM75.4505 12.2741H77.6046C78.6017 12.2741 79.4306 12.0866 80.0911 11.7116C80.7516 11.3324 81.2459 10.7848 81.574 10.0689C81.9022 9.34872 82.0662 8.47088 82.0662 7.43537C82.0662 6.40838 81.9022 5.53693 81.574 4.82102C81.2502 4.10511 80.7665 3.56179 80.123 3.19105C79.4796 2.82031 78.6806 2.63494 77.726 2.63494H75.4505V12.2741ZM0.43821 30V16.9091H2.41335V22.598H8.93963V16.9091H10.9212V30H8.93963V24.2919H2.41335V30H0.43821ZM25.169 23.4545C25.169 24.8523 24.9134 26.054 24.402 27.0597C23.8906 28.0611 23.1896 28.8324 22.299 29.3736C21.4126 29.9105 20.4048 30.179 19.2756 30.179C18.142 30.179 17.13 29.9105 16.2393 29.3736C15.353 28.8324 14.6541 28.0589 14.1428 27.0533C13.6314 26.0476 13.3757 24.848 13.3757 23.4545C13.3757 22.0568 13.6314 20.8572 14.1428 19.8558C14.6541 18.8501 15.353 18.0788 16.2393 17.5419C17.13 17.0007 18.142 16.7301 19.2756 16.7301C20.4048 16.7301 21.4126 17.0007 22.299 17.5419C23.1896 18.0788 23.8906 18.8501 24.402 19.8558C24.9134 20.8572 25.169 22.0568 25.169 23.4545ZM23.2131 23.4545C23.2131 22.3892 23.0405 21.4922 22.6953 20.7635C22.3544 20.0305 21.8857 19.4766 21.2891 19.1016C20.6967 18.7223 20.0256 18.5327 19.2756 18.5327C18.5213 18.5327 17.848 18.7223 17.2557 19.1016C16.6634 19.4766 16.1946 20.0305 15.8494 20.7635C15.5085 21.4922 15.3381 22.3892 15.3381 23.4545C15.3381 24.5199 15.5085 25.419 15.8494 26.152C16.1946 26.8807 16.6634 27.4347 17.2557 27.8139C17.848 28.1889 18.5213 28.3764 19.2756 28.3764C20.0256 28.3764 20.6967 28.1889 21.2891 27.8139C21.8857 27.4347 22.3544 26.8807 22.6953 26.152C23.0405 25.419 23.2131 24.5199 23.2131 23.4545ZM27.6316 30V16.9091H32.2978C33.312 16.9091 34.1536 17.0838 34.8226 17.4332C35.4959 17.7827 35.9988 18.2663 36.3311 18.8842C36.6635 19.4979 36.8297 20.2074 36.8297 21.0128C36.8297 21.8139 36.6614 22.5192 36.3248 23.1286C35.9924 23.7337 35.4895 24.2045 34.8162 24.5412C34.1472 24.8778 33.3056 25.0462 32.2914 25.0462H28.7566V23.3459H32.1124C32.7516 23.3459 33.2715 23.2543 33.6721 23.071C34.0769 22.8878 34.373 22.6214 34.5605 22.272C34.748 21.9226 34.8418 21.5028 34.8418 21.0128C34.8418 20.5185 34.7459 20.0902 34.5542 19.728C34.3667 19.3658 34.0705 19.0888 33.6657 18.897C33.2651 18.701 32.7388 18.603 32.0868 18.603H29.6067V30H27.6316ZM34.0939 24.0938L37.3283 30H35.0783L31.9078 24.0938H34.0939ZM41.2083 16.9091V30H39.2331V16.9091H41.2083ZM43.7459 30V28.6832L50.6301 18.6094H43.6884V16.9091H53.0463V18.2259L46.1621 28.2997H53.1039V30H43.7459ZM66.337 23.4545C66.337 24.8523 66.0813 26.054 65.57 27.0597C65.0586 28.0611 64.3576 28.8324 63.467 29.3736C62.5806 29.9105 61.5728 30.179 60.4435 30.179C59.31 30.179 58.2979 29.9105 57.4073 29.3736C56.521 28.8324 55.8221 28.0589 55.3107 27.0533C54.7994 26.0476 54.5437 24.848 54.5437 23.4545C54.5437 22.0568 54.7994 20.8572 55.3107 19.8558C55.8221 18.8501 56.521 18.0788 57.4073 17.5419C58.2979 17.0007 59.31 16.7301 60.4435 16.7301C61.5728 16.7301 62.5806 17.0007 63.467 17.5419C64.3576 18.0788 65.0586 18.8501 65.57 19.8558C66.0813 20.8572 66.337 22.0568 66.337 23.4545ZM64.381 23.4545C64.381 22.3892 64.2085 21.4922 63.8633 20.7635C63.5224 20.0305 63.0536 19.4766 62.457 19.1016C61.8647 18.7223 61.1935 18.5327 60.4435 18.5327C59.6893 18.5327 59.016 18.7223 58.4237 19.1016C57.8313 19.4766 57.3626 20.0305 57.0174 20.7635C56.6765 21.4922 56.506 22.3892 56.506 23.4545C56.506 24.5199 56.6765 25.419 57.0174 26.152C57.3626 26.8807 57.8313 27.4347 58.4237 27.8139C59.016 28.1889 59.6893 28.3764 60.4435 28.3764C61.1935 28.3764 61.8647 28.1889 62.457 27.8139C63.0536 27.4347 63.5224 26.8807 63.8633 26.152C64.2085 25.419 64.381 24.5199 64.381 23.4545ZM79.3656 16.9091V30H77.5502L70.8961 20.3991H70.7747V30H68.7995V16.9091H70.6277L77.2882 26.5227H77.4096V16.9091H79.3656ZM89.3867 20.348C89.3185 19.7429 89.0373 19.2741 88.543 18.9418C88.0487 18.6051 87.4265 18.4368 86.6765 18.4368C86.1396 18.4368 85.6751 18.522 85.283 18.6925C84.891 18.8587 84.5863 19.0888 84.369 19.3828C84.1559 19.6726 84.0494 20.0028 84.0494 20.3736C84.0494 20.6847 84.1218 20.9531 84.2667 21.179C84.4158 21.4048 84.6097 21.5945 84.8484 21.7479C85.0913 21.897 85.3512 22.0227 85.6282 22.125C85.9052 22.223 86.1715 22.304 86.4272 22.3679L87.7056 22.7003C88.1232 22.8026 88.5515 22.9411 88.9904 23.1158C89.4293 23.2905 89.8363 23.5206 90.2113 23.8061C90.5863 24.0916 90.8888 24.4453 91.119 24.8672C91.3533 25.2891 91.4705 25.794 91.4705 26.3821C91.4705 27.1236 91.2788 27.782 90.8952 28.3572C90.516 28.9325 89.9641 29.3864 89.2397 29.7188C88.5195 30.0511 87.6481 30.2173 86.6254 30.2173C85.6452 30.2173 84.7972 30.0618 84.0813 29.7507C83.3654 29.4396 82.805 28.9986 82.4002 28.4276C81.9954 27.8523 81.7717 27.1705 81.729 26.3821H83.7106C83.7489 26.8551 83.9023 27.2493 84.1708 27.5646C84.4435 27.8757 84.7908 28.108 85.2127 28.2614C85.6388 28.4105 86.1055 28.4851 86.6126 28.4851C87.1708 28.4851 87.6673 28.3977 88.1019 28.223C88.5408 28.044 88.886 27.7969 89.1374 27.4815C89.3888 27.1619 89.5146 26.7891 89.5146 26.3629C89.5146 25.9751 89.4038 25.6577 89.1822 25.4105C88.9648 25.1634 88.6687 24.9588 88.2937 24.7969C87.9229 24.6349 87.5032 24.4922 87.0344 24.3686L85.4876 23.9467C84.4393 23.6612 83.6083 23.2415 82.9947 22.6875C82.3853 22.1335 82.0806 21.4006 82.0806 20.4886C82.0806 19.7344 82.2852 19.076 82.6942 18.5135C83.1033 17.951 83.6573 17.5142 84.3562 17.2031C85.055 16.8878 85.8434 16.7301 86.7212 16.7301C87.6076 16.7301 88.3896 16.8857 89.0671 17.1967C89.7489 17.5078 90.2859 17.9361 90.6779 18.4815C91.07 19.0227 91.2745 19.6449 91.2915 20.348H89.3867Z" fill="black" />
    </svg>